<?xml version="1.0" standalone="no"?>
<!DOCTYPE svg PUBLIC "-//W3C//DTD SVG 20010904//EN"
 "http://www.w3.org/TR/2001/REC-SVG-20010904/DTD/svg10.dtd">
<svg version="1.0" xmlns="http://www.w3.org/2000/svg"
 width="213.000000pt" height="213.000000pt" viewBox="0 0 213.000000 213.000000"
 preserveAspectRatio="xMidYMid meet">
<metadata>
Created by potrace 1.14, written by Peter Selinger 2001-2017
</metadata>
<g transform="translate(0.000000,213.000000) scale(0.100000,-0.100000)"
fill="#000000" stroke="none">
<path d="M0 1070 l0 -720 1065 0 1065 0 0 720 0 720 -1065 0 -1065 0 0 -720z
m1179 321 c13 -18 40 -36 69 -46 75 -27 88 -35 105 -65 20 -33 22 -77 5 -132
-11 -37 -9 -44 28 -121 21 -45 42 -83 47 -85 14 -7 7 -45 -10 -58 -10 -7 -40
-14 -68 -14 -57 0 -129 -30 -189 -79 -57 -45 -93 -42 -155 13 -51 46 -100 66
-158 66 -43 0 -59 28 -66 110 -3 38 -14 84 -27 111 -28 57 -23 73 27 89 62 20
103 69 103 125 0 14 11 37 24 50 19 19 34 24 74 23 35 -1 60 5 83 20 48 31 83
28 108 -7z m361 13 c11 -13 -20 -114 -35 -114 -14 0 -105 39 -105 45 0 12 24
55 32 55 4 0 8 7 8 16 0 14 8 16 46 11 25 -2 49 -9 54 -13z m-104 -649 c18
-13 15 -14 -30 -15 -42 0 -47 2 -36 15 16 19 41 19 66 0z m-496 -5 c0 -5 -17
-10 -37 -10 -28 0 -34 3 -23 10 20 13 60 13 60 0z"/>
<path d="M1116 1391 c-13 -20 -81 -43 -127 -43 -54 1 -62 -6 -73 -69 l-6 -36
46 -7 c60 -8 101 -33 114 -70 6 -17 27 -62 46 -99 l35 -69 -26 -39 c-14 -22
-37 -45 -50 -51 -21 -9 -29 -7 -59 20 -19 16 -44 33 -55 37 -12 3 -21 13 -21
21 0 22 36 9 83 -28 21 -17 42 -26 45 -22 4 5 18 21 30 35 l23 27 -29 48 c-16
27 -35 66 -42 87 -15 47 -43 66 -108 74 -45 5 -54 3 -83 -21 -17 -15 -45 -30
-60 -33 -34 -7 -35 -11 -9 -61 11 -21 23 -71 28 -112 l7 -74 65 -11 c76 -13
93 -21 139 -69 44 -45 86 -48 122 -10 45 48 103 75 178 81 47 4 71 10 71 18 0
7 -19 52 -42 100 -40 84 -41 89 -30 131 26 97 5 143 -75 163 -33 9 -58 24 -84
52 -38 41 -44 45 -53 30z"/>
<path d="M1454 1368 c-6 -20 15 -48 37 -48 8 0 19 52 12 62 -9 16 -42 7 -49
-14z"/>
</g>
</svg>
